<?xml version="1.0" encoding="UTF-8" standalone="no"?>
<!-- Created for Inkscape (http://www.inkscape.org/) -->

<svg
   xmlns:dc="http://purl.org/dc/elements/1.1/"
   xmlns:cc="http://creativecommons.org/ns#"
   xmlns:rdf="http://www.w3.org/1999/02/22-rdf-syntax-ns#"
   xmlns:svg="http://www.w3.org/2000/svg"
   xmlns="http://www.w3.org/2000/svg"
   xmlns:sodipodi="http://sodipodi.sourceforge.net/DTD/sodipodi-0.dtd"
   xmlns:inkscape="http://www.inkscape.org/namespaces/inkscape"
   width="3200"
   height="800"
   id="svg2985"
   version="1.1"
   inkscape:version="0.48.1 r9760">
  <defs
     id="defs2987" />
  <sodipodi:namedview
     id="base"
     pagecolor="#ffffff"
     bordercolor="#666666"
     borderopacity="1.0"
     inkscape:pageopacity="0.0"
     inkscape:pageshadow="2"
     inkscape:zoom="0.35"
     inkscape:cx="1600"
     inkscape:cy="400"
     inkscape:document-units="px"
     inkscape:current-layer="layer1"
     showgrid="false"  />
  <metadata
     id="metadata2990">
    <rdf:RDF>
      <cc:Work
         rdf:about="">
        <dc:format>image/svg+xml</dc:format>
        <dc:type
           rdf:resource="http://purl.org/dc/dcmitype/StillImage" />
        <dc:title />
      </cc:Work>
    </rdf:RDF>
  </metadata>
  <g
     inkscape:label="Layer 1"
     inkscape:groupmode="layer"
     id="layer1"> 
     <g>
<path style="fill:none;stroke:black;stroke-width:2px;stroke-linejoin:round;stroke-linecap:round;" d="M 
1955.4691 399.36255
1962.8042 405.66254
1963.697 414.47153
1957.8849 418.97897
1953.7574 410.0582
1950.1284 416.86264
1942.0902 417.62787
1933.0817 414.10547
1926.5002 421.09534
1919.1775 425.8425
1927.3881 432.79782
1938.0435 434.95728
1948.7091 444.0661
1950.4757 427.19272
1962.3027 426.03
1956.6094 435.7116
1959.5127 451.00525
1948.9606 457.94482
1953.7031 476.8475
1944.1008 478.11395
1938.4075 470.098
1934.261 459.44858
1927.0607 447.21948
1919.1124 459.75696
1926.2014 473.80396
1934.5757 486.0512
1943.5754 497.23236
1946.3506 509.90402
1937.3125 510.22913
1929.4075 508.4741
1921.9055 509.58386
1916.3988 512.4444
1917.006 521.28357
1928.8151 519.49066
1940.5414 518.5042
1936.9808 527.49023
1930.3845 539.45276
1919.5518 532.4495
1907.1362 530.5175
1901.3127 519.3844
1891.7142 523.3125
1886.7162 517.03656
1879.5529 519.34143
1872.4596 511.63776
1868.9819 501.40497
1862.2793 493.25693
1857.5776 505.74728
1862.676 517.80414
1853.5923 517.0562
1840.6183 520.7314
1839.0237 505.0555
1847.966 506.53732
1848.3772 494.65186
1836.9873 490.97748
1840.6416 483.98254
1859.1118 484.8327
1851.0349 479.49228
1840.5065 476.63666
1846.6874 469.3642
1854.221 462.6233
1857.1519 472.4395
1865.736 472.31003
1875.3547 469.44183
1868.7148 455.40942
1883.8967 456.14597
1885.1067 475.04224
1876.7722 488.43494
1893.8604 480.509
1895.8412 491.02283
1892.4222 498.53394
1882.7454 504.1115
1891.0021 512.38763
1897.1838 507.81024
1907.9813 514.3161
1913.0918 506.80536
1904.3221 504.68494
1910.9137 497.3692
1926.5032 499.12384
1920.6436 489.30957
1914.2336 478.9254
1904.2103 482.0451
1893.7383 466.12134
1898.6533 458.32578
1908.0011 467.35104
1907.4374 453.77087
1908.4908 443.48337
1898.2605 446.57422
1888.2751 443.94382
1879.0125 440.82123
1870.6956 436.1578
1872.5607 420.29404
1883.5986 419.3895
1884.9595 431.75342
1897.0748 423.63574
1904.4386 433.26132
1916.7524 435.9427
1910.8167 420.07935
1908.7716 407.30103
1921.9628 406.01172
1938.0098 401.17953
1933.3577 382.36896
1941.1421 388.1535
1956.4613 386.51572
1959.2792 363.77893
1952.4348 370.98065
1942.6188 374.62073
1936.38 361.0083
1933.1565 351.44617
1947.0752 351.0096
1959.0337 349.6081
1953.7532 341.82227
1953.5457 335.53418
1954.8801 326.87277
1951.2224 319.79105
1948.3157 310.56033
1948.8668 300.1131
1940.6523 300.1562
1933.5941 300.62924
1932.779 307.778
1935.3044 314.5135
1939.9823 321.13885
1942.381 330.87335
1937.5493 339.8029
1926.2277 341.52966
1926.3987 326.78445
1919.9836 313.7048
1912.1611 300.35272
1917.649 285.93127
1925.7952 295.79163
1942.5293 290.6578
1939.3059 281.72705
1931.2534 277.50742
1933.8608 265.2241
1928.2488 258.14532
1930.8582 249.91483
1928.782 238.41557
1919.4681 239.99622
1914.8981 233.46234
1913.5448 221.52844
1899.4663 221.87157
1900.8826 206.32764
1902.4749 195.70067
1892.9568 194.6972
1892.9951 181.97589
1880.0074 178.75053
1885.9585 189.47093
1881.7981 196.56091
1885.864 210.73492
1874.2334 218.99649
1874.8973 200.67145
1866.3489 206.03497
1842.5425 199.18515
1845.1953 207.05455
1854.1766 211.87466
1858.2798 223.95013
1843.8945 231.82677
1837.7964 223.57274
1835.4655 214.1506
1823.8296 208.7337
1831.988 201.14488
1842.1187 193.04352
1851.3546 188.25726
1858.1594 195.52481
1869.7544 187.51971
1858.7163 179.82697
1863.0505 170.21509
1875.2333 167.35155
1864.931 158.66974
1865.298 150.23056
1851.2334 160.0256
1849.5504 169.62668
1842.8762 177.22258
1836.2368 185.28874
1824.0801 188.2728
1825.2416 174.28716
1829.2931 161.69063
1839.616 159.13472
1850.7656 150.55936
1854.2834 141.85654
1843.2253 135.71399
1833.7461 142.08838
1826.3584 150.31807
1820.3103 143.17535
1809.4794 136.48442
1802.845 142.00183
1809.2878 149.85059
1816.5055 159.50856
1811.3237 168.96869
1801.5793 162.01114
1786.5555 163.3979
1787.7922 153.48857
1795.1913 146.05307
1793.6292 132.22824
1791.6997 118.10363
1783.7988 112.37179
1786.3025 104.7912
1796.2004 104.332855
1799.7338 119.93176
1805.8042 126.52065
1814.469 126.85846
1822.4662 131.84058
1833.0396 123.81039
1823.1427 116.69971
1815.8019 109.616974
1809.45 117.0577
1806.0697 103.833664
1793.772 93.56372
1782.9177 90.311
1773.7957 97.745926
1774.5494 109.51662
1764.6592 113.687836
1761.3458 103.73045
1753.5706 99.3573
1743.1493 95.93918
1731.5641 96.93919
1734.5381 105.77179
1742.94 112.687195
1752.1941 113.17685
1745.7124 127.5378
1758.0648 129.21815
1770.2477 131.69327
1779.2815 122.85864
1781.5901 140.69234
1772.0674 149.02716
1759.9662 147.03964
1745.6182 152.20349
1751.9109 166.24808
1764.1136 170.00806
1772.5115 163.19043
1775.7344 180.58067
1758.2692 186.66008
1755.9446 178.96391
1737.875 170.29965
1727.0874 174.80504
1728.0598 211.02098
1732.1035 225.32005
1722.4253 228.4385
1734.9114 234.68541
1740.9089 227.74278
1745.3362 221.46393
1739.5054 213.7495
1749.9196 212.44347
1777.3723 193.01547
1787.5277 177.65501
1795.721 172.11845
1801.1877 179.61282
1812.5581 180.27635
1801.3496 191.20847
1788.8287 195.6998
1796.5575 204.3215
1800.873 213.9028
1805.837 209.35153
1813.0963 198.2683
1814.8906 210.51974
1811.8269 221.51001
1822.5668 224.17102
1822.7546 237.82762
1832.3495 235.06242
1832.4834 249.12048
1844.7408 246.0058
1849.3193 239.46031
1857.4971 239.2988
1865.4702 233.38
1871.8564 239.9599
1885.405 241.06108
1885.1968 227.31625
1902.6001 237.94775
1893.7004 252.90733
1909.5808 249.36205
1919.9513 251.89256
1904.8391 261.40997
1914.7432 264.57416
1923.555 270.6708
1915.227 275.31778
1905.8907 279.0251
1898.9308 286.24988
1886.5376 280.73758
1878.093 288.33542
1863.3862 275.1989
1873.3254 278.96515
1895.6709 269.78558
1883.0809 268.12317
1874.5461 257.43472
1860.0723 253.75006
1845.8046 255.7554
1833.9583 261.31342
1840.9131 269.11755
1853.6625 267.48917
1851.8906 282.64426
1840.4691 281.87146
1848.5844 292.08084
1841.311 294.24127
1844.7101 305.02838
1855.3804 313.2854
1858.1915 298.1515
1867.1136 292.09814
1872.0393 302.65903
1874.9102 312.1842
1882.0634 298.94067
1888.9249 291.62756
1900.3582 299.1538
1891.5193 305.46844
1892.5554 315.01416
1905.3538 318.263
1899.7812 332.31586
1912.1837 332.39444
1915.3628 347.86423
1902.8922 351.37274
1895.3158 340.73663
1891.4193 351.27393
1881.8506 346.76367
1890.0768 328.6057
1882.3041 327.19806
1873.1133 321.61285
1868.7911 331.92853
1849.6941 326.84344
1848.3877 339.2349
1850.5366 349.31662
1859.4667 348.04047
1868.399 345.456
1858.7876 354.56284
1855.396 360.05685
1860.8772 371.80478
1869.0146 363.58472
1878.8682 358.3513
1882.0654 367.42224
1890.8373 374.25204
1891.0581 365.73557
1898.3925 362.5135
1911.5266 363.25574
1922.4813 362.02756
1930.3259 371.76303
1922.2341 389.66122
1917.2966 376.8609
1904.4048 374.67624
1893.3774 385.5747
1904.5635 392.5462
1893.821 406.45932
1879.3086 400.88776
1884.0779 379.6949
1874.6182 382.1723
1858.7085 379.94
1858.1576 387.59778
1863.3741 400.57788
1849.1195 397.17502
1835.946 399.02902
1839.7242 387.662
1845.134 378.1185
1847.5232 367.0207
1837.4633 365.51996
1844.5813 354.89902
1839.8378 348.266
1814.0957 329.72614
1811.4413 344.16125
1796.0145 347.4665
1780.8112 345.50183
1788.2898 334.837
1799.9751 335.4835
1803.1526 328.35806
1804.8381 322.0952
1810.0593 318.43927
1819.2432 317.77847
1815.687 313.74847
1810.2177 307.82114
1814.2048 296.9536
1805.5991 291.10858
1812.0702 281.36914
1804.9585 281.66382
1799.1473 284.50787
1796.2485 288.21066
1795.3004 293.6217
1801.4329 301.88214
1798.561 314.59155
1788.0253 311.7417
1790.4048 323.239
1778.3351 326.59464
1772.7947 331.86578
1769.6704 341.3103
1766.7527 349.4532
1784.8016 378.6162
1773.2808 377.1711
1761.8726 378.28046
1760.81 388.2118
1755.5029 397.5534
1745.1064 396.07996
1741.466 388.21945
1747.6311 379.05933
1732.314 379.3845
1720.0369 384.66818
1710.2299 380.15186
1696.0261 379.44382
1685.829 384.83282
1675.7354 386.9796
1662.2495 383.8773
1653.5411 386.6947
1668.3645 376.65207
1667.869 343.7149
1677.3145 336.3496
1683.7512 349.31897
1687.9415 340.41406
1691.1349 327.51633
1699.5728 340.17905
1713.906 344.6222
1731.4512 346.5826
1742.1167 339.13837
1749.4884 348.9012
1757.5844 342.93427
1763.856 333.39978
1763.446 323.62778
1757.3824 318.23682
1769.3074 309.4744
1777.458 316.90002
1779.7205 302.85275
1790.7463 301.3131
1785.4348 291.89
1771.4009 292.8675
1765.7935 300.22537
1758.179 302.5648
1757.6667 292.42105
1750.1324 286.15973
1745.6842 295.877
1752.3834 308.2417
1746.9052 318.0911
1753.8895 333.98404
1745.2181 329.1423
1736.6265 321.44586
1727.8647 331.013
1712.96 328.43546
1706.277 320.3363
1699.2292 317.88956
1688.7698 313.79263
1678.3291 322.42657
1663.6766 319.3958
1670.5322 307.34637
1660.2314 302.27554
1652.1821 294.84845
1659.2205 285.1988
1657.8728 274.07535
1652.6925 262.8748
1652.9486 242.80255
1663.3679 241.03
1663.8457 248.86363
1676.5623 245.19402
1689.2207 238.0716
1699.3683 230.6945
1707.6356 242.09343
1699.8885 247.57219
1687.0537 250.40826
1680.5505 257.39517
1666.8596 256.17056
1666.3372 266.70914
1676.5377 264.79575
1692.3641 260.21088
1698.5526 256.00433
1707.9156 255.13843
1702.7427 264.1778
1711.5906 267.0605
1719.9558 265.8249
1715.2666 256.62872
1725.002 255.93921
1726.6553 266.1364
1722.9324 275.16656
1719.6223 295.2948
1717.7866 284.32724
1711.3922 276.63745
1703.8389 282.60376
1697.0148 277.6514
1687.5383 267.91116
1688.965 276.3543
1684.3773 283.75745
1672.1034 277.56848
1671.7173 291.64404
1683.8809 299.01074
1698.2532 300.4644
1712.9714 308.12158
1725.6458 313.89005
1737.469 308.26123
1736.7538 298.60925
1734.6444 284.3047
1742.3844 276.59943
1733.4535 269.71634
1737.3961 263.03873
1733.1041 255.84375
1735.5728 245.54716
1728.7601 243.00623
1719.2826 245.14218
1712.4785 232.11162
1714.125 218.14212
1714.3229 207.5343
1700.7449 208.92163
1700.6798 217.95
1687.5518 217.96422
1678.8063 225.16667
1671.2178 231.75507
1659.1478 233.20653
1664.7399 195.24937
1655.5195 186.79477
1666.9172 182.12033
1678.053 180.75749
1690.86 183.11533
1690.7893 174.49771
1685.0905 168.04381
1695.8318 164.29723
1700.0986 156.30261
1708.5376 178.1262
1715.054 167.98209
1707.1344 160.13809
1714.7561 152.62253
1727.1165 149.55206
1736.2858 137.21393
1732.7656 119.48107
1719.555 127.223175
1711.322 138.09276
1699.14 145.71478
1698.2195 132.56934
1696.2122 122.53243
1707.0054 123.717766
1718.8867 114.86458
1718.9729 104.09238
1702.1136 107.2094
1693.5815 111.882675
1687.8362 115.51189
1682.1165 122.81201
1674.5518 132.22122
1685.609 131.74057
1688.9447 139.72894
1685.0369 150.50237
1680.6006 159.93655
1672.0494 169.1611
1667.2699 158.84892
1664.7434 146.88318
1674.5004 143.30602
1666.919 127.50818
1659.8887 134.29498
1652.9341 140.05066
1652.6593 149.21684
1652.2396 158.27371
1654.3987 171.26257
1639.2483 180.60509
1634.2131 165.0522
1641.9572 160.11317
1640.1007 143.6741
1644.0569 128.9833
1652.5222 127.74322
1638.4156 131.95622
1629.2462 132.27487
1630.3676 152.53697
1623.7903 145.26698
1613.4153 138.50964
1617.8667 124.283264
1617.3562 110.28719
1630.0146 102.755264
1629.8176 93.00612
1636.7153 84.851776
1630.2119 78.86648
1640.1395 72.68096
1647.6233 86.37425
1648.6172 97.38388
1648.4338 109.79598
1632.997 115.4998
1649.3214 119.77151
1663.2042 117.714905
1677.7246 114.07308
1670.8481 107.87537
1676.006 96.73143
1687.514 100.55591
1700.4725 92.438034
1686.3315 85.515526
1700.9302 71.0917
1709.6438 80.95306
1713.4945 93.52343
1723.7086 89.92227
1726.4624 80.33711
1733.259 87.09659
1742.5287 83.36178
1753.2627 86.01233
1764.0469 90.79295
1769.9141 80.62797
1751.0515 71.77402
1736.6587 73.77497
1733.1069 61.80658
1726.7283 69.11221
1718.8174 75.89929
1715.6465 68.31049
1719.8629 59.883186
1715.4393 52.891
1708.8116 58.642952
1697.0428 51.80946
1688.1321 59.873787
1686.6545 73.77428
1672.5325 65.63771
1667.5403 83.69003
1661.6542 99.484024
1656.2307 74.79394
1651.1024 64.69685
1652.8339 54.47047
1676.5317 48.16622
1660.574 44.641464
1640.9775 41.779224
1623.9026 50.40478
1635.42 59.0008
1626.0981 70.034164
1615.0024 65.70989
1599.573 66.09671
1597.9243 83.18176
1610.5492 84.40986
1620.6096 81.79028
1612.1742 97.206535
1604.6948 113.34111
1599.5837 125.07061
1587.9816 112.11367
1600.178 102.34778
1590.5768 96.52034
1580.49 102.06161
1573.6436 95.67883
1574.6002 88.09912
1582.5537 84.74862
1589.546 76.00665
1581.2195 71.689476
1581.9417 62.138313
1588.8333 57.22339
1579.5558 52.865067
1570.443 50.00801
1574.8109 49.287224
1581.1516 44.73402
1589.5864 46.513626
1597.7361 50.489468
1608.4883 52.9369
1609.6498 40.780754
1624.147 37.927742
1611.7344 33.68392
1597.5212 37.939537
1583.1091 36.30349
1569.8123 39.56572
1560.2512 37.09578
1545.3157 40.41797
1556.0331 47.72608
1564.5486 51.017143
1571.9729 62.44438
1567.0428 76.64507
1553.9706 77.77107
1550.082 67.86241
1560.3301 62.76552
1549.2957 56.321804
1541.7354 49.36453
1541.5107 58.24121
1534.8303 59.06266
1540.8723 66.00033
1538.9983 76.10498
1529.1499 72.14041
1520.3298 70.69188
1521.172 64.19995
1526.2192 63.233696
1526.1001 57.09185
1530.7947 48.72502
1527.5682 41.866722
1514.4087 43.97281
1516.5967 52.059586
1512.5944 63.19322
1506.5364 73.02058
1503.7407 49.5639
1498.4395 57.76432
1489.4988 62.259243
1476.3882 61.664215
1492.4049 73.57594
1476.4524 81.69598
1465.3785 74.6744
1455.3816 65.60953
1447.9705 75.73532
1436.759 83.270676
1433.4832 74.48431
1425.7405 80.955635
1422.8077 88.26488
1412.9174 89.6974
1415.0514 103.25632
1405.6362 98.46597
1398.0327 96.184204
1390.0333 100.465225
1388.7115 109.041374
1381.4646 106.72841
1376.9954 116.15083
1380.991 126.95443
1386.0823 135.32149
1393.8732 127.45535
1401.9177 121.22701
1392.3698 117.08526
1396.5006 107.877594
1404.9285 110.50119
1418.6467 115.55286
1411.6934 124.898186
1403.2124 134.08298
1413.3596 141.53888
1404.6458 146.98003
1393.7936 143.37766
1382.561 148.31372
1376.6814 159.60936
1371.0095 165.89487
1373.4264 174.619
1384.9545 167.29471
1392.3263 156.56909
1412.9902 159.84732
1425.191 160.19917
1432.3804 154.33754
1434.9873 140.36763
1422.5043 146.9708
1420.6866 134.1014
1426.4763 127.33269
1433.3232 120.5155
1442.8496 126.21874
1449.9137 133.63884
1458.9009 138.2086
1467.6155 144.5159
1468.0146 156.70459
1456.8218 157.8659
1458.0295 146.84184
1447.4403 146.7211
1442.5876 156.49966
1440.7396 169.26122
1438.3018 188.99902
1422.6251 189.1297
1425.1882 172.455
1406.4425 182.78459
1403.6768 165.83304
1396.08 172.52438
1392.6235 181.06058
1382.8534 179.08102
1365.1962 180.07176
1369.9795 209.68402
1361.8633 219.96011
1348.411 212.96672
1347.9208 177.99307
1347.6678 159.39511
1360.7439 165.84113
1367.5033 151.19415
1369.5045 139.153
1364.6453 126.27171
1348.0781 135.21428
1351.2561 146.1951
1331.5192 156.50699
1333.2913 176.50363
1318.9637 176.05302
1312.5492 189.99638
1300.6755 199.75726
1289.3148 209.83714
1298.1354 212.80492
1294.0273 225.04382
1282.289 224.46884
1280.2173 236.23357
1272.3938 249.0036
1262.0011 266.00153
1269.0095 272.69504
1267.2106 290.96417
1255.6661 290.00592
1259.6257 307.21747
1247.5509 312.17975
1255.6711 326.90106
1264.8672 321.06686
1296.656 317.58868
1293.7057 309.44666
1294.7705 298.33902
1302.3967 303.6638
1309.401 305.38614
1320.9169 309.14673
1311.0497 314.5482
1315.6978 324.7542
1325.5181 329.43042
1327.0385 319.17334
1333.4447 309.12924
1320.6581 296.12244
1319.769 282.29114
1310.4014 289.77118
1303.475 291.44986
1295.9757 286.79425
1300.4829 278.0891
1309.609 273.15125
1301.49 266.53244
1308.3901 253.61725
1320.5793 247.41837
1326.4286 225.42711
1335.6641 235.02922
1320.313 266.80457
1334.1011 271.6404
1336.5479 253.44897
1349.874 249.76907
1350.5907 229.31786
1367.8381 230.12567
1374.7689 223.02417
1380.6924 220.3859
1388.9379 211.13689
1387.7773 221.41502
1376.7762 238.0477
1364.011 243.85492
1376.3823 261.69388
1367.5486 268.0207
1358.0564 260.3019
1348.9033 270.31927
1362.4952 286.6494
1351.0964 284.90417
1336.0496 286.37897
1341.604 299.9942
1356.1294 319.09564
1351.7048 327.9021
1352.7339 337.75812
1353.4392 349.60773
1349.9955 344.22113
1339.5204 343.31723
1333.1902 348.14325
1344.2706 337.8508
1346.9866 333.42108
1340.517 322.8757
1337.4348 334.8082
1329.7236 336.2287
1320.6874 345.4381
1308.1699 347.76727
1313.3765 336.78052
1303.1289 333.779
1299.8503 325.51202
1297.3489 340.32407
1297.5267 348.5543
1271.7549 365.39777
1259.8878 362.2584
1262.3423 350.58624
1267.4055 339.19336
1253.9829 339.11697
1242.9587 329.4663
1241.7384 347.19745
1244.5671 361.4144
1237.2795 375.51984
1258.2083 374.47168
1248.9532 382.97412
1239.3326 391.02826
1239.2179 400.15488
1236.691 411.54596
1248.6166 404.19794
1257.597 405.51086
1263.6487 414.82837
1271.1027 416.6012
1267.0957 398.09763
1264.1749 386.64514
1280.6123 376.9028
1279.2563 387.6417
1282.0997 398.93967
1274.5117 406.185
1279.578 414.79077
1288.741 410.3381
1297.0316 406.09924
1304.1428 400.50995
1315.6584 393.47968
1293.7047 392.88254
1294.3704 379.79834
1305.8221 382.28903
1320.2356 379.20578
1327.456 403.23627
1326.6138 416.59808
1341.5065 410.2223
1351.6044 399.47308
1343.9679 391.2246
1332.6385 389.22083
1334.0549 377.2169
1344.6005 377.6593
1356.0183 379.44934
1373.596 376.89215
1386.3495 377.0157
1382.3527 388.54892
1385.9875 397.34998
1392.7667 393.69855
1401.154 392.60846
1395.1941 381.59628
1409.6716 378.9604
1400.5659 347.3543
1410.7996 342.8642
1425.9504 345.9842
1427.0714 332.60132
1415.4869 334.0624
1416.0288 323.65118
1405.6707 317.02005
1396.0901 322.63538
1397.7828 334.35648
1388.5142 342.65833
1379.6182 335.0215
1374.0156 347.12952
1359.773 337.82867
1367.4854 333.40002
1379.8722 323.16968
1392.2402 306.9018
1374.9354 310.37448
1358.1711 306.38293
1373.5209 294.76093
1379.9805 279.46976
1387.4318 289.6024
1397.8376 292.5163
1407.9316 297.1875
1412.0437 309.00406
1422.991 312.34192
1429.8123 316.80304
1432.1451 323.43723
1439.3943 328.3291
1436.9841 336.2152
1441.6023 345.5268
1452.3715 344.90454
1451.8127 335.682
1455.0765 328.5204
1458.0967 324.89618
1448.1648 330.55035
1445.1716 323.5848
1454.0356 318.5266
1453.2898 309.9416
1446.9285 300.8987
1444.4457 313.15637
1437.0381 310.3142
1431.6222 303.4719
1423.2943 301.2343
1416.6356 295.505
1425.362 291.14374
1436.5569 294.25128
1442.5171 282.56372
1451.6769 281.76877
1448.8334 291.3521
1455.4282 301.35843
1482.4595 289.67355
1487.0251 298.88406
1482.854 313.549
1486.5209 323.6939
1495.8207 318.67108
1499.7871 310.66367
1493.0009 306.00766
1504.6129 298.51617
1513.7375 290.82208
1505.1511 283.78546
1490.9384 284.2701
1485.935 274.0231
1477.6827 277.23196
1478.7512 268.61456
1474.8734 262.0555
1474.7722 252.06659
1479.5295 241.45706
1465.1425 239.23145
1454.6992 226.74802
1463.2723 222.63799
1467.7513 210.88309
1448.127 208.02744
1452.6996 189.268
1457.3649 169.89
1465.285 179.84827
1469.9368 192.37192
1478.0806 202.60245
1483.0901 183.20325
1494.7878 187.31631
1507.1238 178.73357
1499.578 167.73508
1492.5916 154.81146
1480.3282 166.31586
1477.1157 151.53304
1487.31 146.34363
1481.0397 142.28429
1473.7732 139.41406
1466.9236 135.0219
1460.4487 128.83664
1454.4601 117.899475
1450.1385 105.434784
1437.8755 110.47528
1425.333 106.54864
1432.4448 98.58218
1439.7532 92.74478
1449.0629 88.73373
1456.0767 95.53958
1459.1904 87.58815
1464.9873 86.2885
1472.8805 93.85411
1465.3429 97.842224
1462.8488 105.75221
1468.1671 112.12079
1473.6036 120.841125
1465.4507 122.878654
1470.7688 129.6369
1477.9009 131.45412
1485.1248 127.08119
1490.2059 119.877945
1481.4875 113.41839
1478.173 103.46343
1484.0076 92.24447
1496.5537 109.727905
1496.0704 98.38515
1492.1498 83.49367
1505.0978 87.2502
1517.3906 80.10364
1529.9702 85.321365
1528.9032 99.75265
1516.6831 93.72156
1511.7185 104.823105
1511.0254 114.42425
1521.4158 110.51812
1527.9243 114.1122
1537.4833 108.079765
1547.4398 103.37068
1540.1276 93.36145
1548.1707 86.356346
1558.5566 92.31051
1564.9661 100.31369
1562.5444 108.793
1564.4585 118.54642
1555.8721 116.54646
1549.3811 114.95732
1538.7917 116.38641
1528.7334 123.29226
1537.9182 126.151886
1545.8237 128.73868
1555.7705 127.34108
1565.6693 128.62587
1561.5212 141.6525
1550.574 138.80191
1557.2009 149.87802
1549.9065 154.40645
1537.4434 152.8861
1538.3422 139.80656
1527.6628 133.10132
1528.0682 142.42761
1522.0996 147.02878
1515.8578 137.40273
1516.9172 125.18091
1506.5813 119.47984
1500.4309 123.03075
1506.7928 135.29416
1498.3619 131.44699
1488.032 135.85437
1495.1516 141.30872
1500.653 145.40047
1506.6312 147.03972
1509.3933 152.10948
1513.2322 157.97119
1522.658 159.86868
1531.0889 167.87631
1544.7634 164.4115
1542.7035 175.9102
1536.8525 183.03192
1526.7865 181.42789
1517.8423 172.87486
1512.5876 187.32726
1499.2856 199.95618
1490.3027 208.12842
1481.4779 216.84967
1475.4814 228.18188
1488.0967 227.24265
1498.6814 222.90536
1493.7574 238.67351
1505.5977 242.73491
1498.5349 253.92218
1487.4119 260.02582
1494.731 272.49536
1502.9276 265.4457
1507.9441 273.05148
1517.8448 273.09406
1524.1705 264.21075
1531.3281 263.02686
1538.6956 264.52338
1539.5729 256.97073
1529.56 255.15149
1513.3606 260.21265
1518.7391 251.31644
1521.514 239.93265
1511.3473 234.07047
1521.5444 225.46526
1528.1619 232.26903
1529.9205 243.32498
1540.9489 246.39062
1554.9346 253.73694
1549.5979 262.745
1560.9016 271.40857
1549.3796 274.55072
1552.9918 283.8518
1564.2311 289.9665
1573.5157 283.04306
1583.3544 293.22717
1596.2192 300.37808
1601.1497 283.29816
1593.0527 278.9983
1583.5193 273.2768
1573.482 266.72607
1574.0758 255.24881
1583.3739 246.33539
1592.112 259.72507
1602.9108 266.18045
1609.5098 253.98224
1595.4048 248.54332
1606.1584 245.725
1618.0732 242.18677
1611.5735 238.31445
1604.0945 234.27672
1594.3276 235.91168
1587.1472 224.108
1598.5577 214.49591
1607.1802 205.53937
1596.4451 188.57675
1589.1597 173.47476
1588.3279 161.11497
1576.4681 167.36076
1565.3895 170.34985
1573.075 180.19676
1584.707 182.25903
1589.5105 186.61517
1585.1606 195.92552
1595.0938 201.11111
1586.5627 212.0221
1583.2068 234.63339
1572.1511 236.67358
1562.1447 245.4824
1556.815 233.41785
1551.4977 222.56816
1542.3942 232.93646
1532.7642 221.6102
1541.6628 216.37816
1533.638 209.67291
1520.967 212.19415
1512.4016 221.73206
1504.6389 214.75797
1509.5054 207.15256
1512.6771 198.21078
1522.5286 193.36688
1527.8655 201.00171
1539.1764 201.4406
1534.1448 191.86197
1544.3667 190.34807
1552.08 194.3162
1553.3239 203.95909
1552.9758 212.54332
1568.6182 218.88841
1575.8066 205.48984
1576.3888 191.10043
1565.1915 195.76929
1558.0295 183.15808
1554.291 173.00493
1555.8416 162.3444
1565.2205 159.8456
1571.7992 151.59103
1572.6748 136.19344
1573.9829 111.22304
1581.0032 124.14288
1586.7804 137.12209
1581.507 147.67331
1594.6259 147.63405
1599.9614 137.69643
1601.9707 155.64679
1612.0869 156.6083
1622.2572 159.50958
1624.7186 171.79758
1611.9813 170.81346
1603.4287 176.77817
1608.5619 191.06744
1622.4504 186.74203
1632.6321 196.04185
1643.6411 198.33371
1651.2507 195.55887
1645.2411 208.54776
1634.8596 210.56479
1629.8654 221.49982
1624.0541 212.83543
1619.9192 202.69934
1615.9856 216.90001
1609.5444 220.30331
1603.5714 225.47227
1616.8655 231.10246
1623.7424 228.59087
1645.8306 245.83586
1647.0596 253.61485
1637.55 269.0468
1645.9451 281.1808
1633.1442 289.2594
1628.5286 307.31467
1645.3496 305.10828
1637.7871 318.52924
1627.3074 325.92902
1635.3314 333.50793
1649.2378 321.7825
1660.6056 332.13202
1652.7736 343.59677
1640.417 345.20496
1629.2876 344.99582
1600.7759 346.34656
1598.9666 335.047
1591.8062 328.2091
1588.0092 313.23633
1575.9237 327.80136
1559.482 317.5883
1568.8674 306.08942
1550.377 297.24817
1545.0222 310.39804
1530.6527 309.62796
1534.4148 296.04565
1540.8716 285.0725
1541.6328 272.81024
1534.7373 271.67944
1528.2976 273.5031
1526.7314 282.3228
1523.2922 292.09277
1519.422 300.829
1517.9348 308.8402
1507.4656 310.56604
1507.3418 319.44427
1498.5438 329.92468
1509.5612 327.91016
1518.8365 319.57147
1528.3861 328.80722
1533.759 322.28754
1546.0148 324.92587
1544.9333 339.7176
1561.3159 334.54584
1561.2637 350.9325
1555.6295 363.4251
1551.1377 375.84174
1563.5365 375.75037
1572.6858 382.70215
1585.1542 381.83228
1580.2307 367.56006
1571.8666 359.12482
1577.1099 347.03314
1588.7825 343.93903
1594.2637 355.85962
1599.9895 364.13855
1597.595 373.81027
1611.4558 377.66733
1600.353 387.02194
1589.5056 394.3872
1579.325 399.42978
1572.2136 395.1764
1563.5591 395.5726
1554.1875 389.67883
1547.5142 384.53122
1541.0123 384.7531
1536.8412 374.4557
1542.8386 365.5184
1543.7214 353.16742
1531.7827 356.21228
1521.218 362.91928
1517.9324 352.99594
1526.5709 344.41333
1522.2499 334.41495
1510.1724 339.50684
1498.6827 343.6817
1492.1082 334.3702
1483.6721 335.55228
1483.8082 346.51633
1491.8364 355.84387
1490.737 366.60815
1487.8606 374.591
1482.655 380.6533
1479.0785 357.86346
1474.5619 371.36993
1470.6709 384.761
1453.4486 379.86194
1440.009 378.47314
1429.4165 379.66797
1440.2632 394.10596
1444.404 408.10532
1451.4623 416.799
1459.6937 393.84616
1461.6111 408.25848
1471.2327 418.78607
1475.9773 430.54712
1462.5208 430.85272
1451.0122 431.97797
1437.6016 429.1753
1425.6565 436.478
1419.1763 423.75232
1406.7458 435.577
1389.801 437.3694
1383.456 471.50168
1387.6179 485.9145
1368.3107 489.01816
1352.7864 492.96747
1356.8784 472.7495
1352.536 439.1192
1346.5107 436.09888
1359.1859 434.63498
1370.3997 435.1534
1380.9003 429.99744
1382.0455 418.73438
1394.532 424.33298
1404.856 419.2849
1419.8446 407.3354
1431.5833 409.69943
1423.1606 388.27368
1412.9414 393.84863
1407.5703 405.47144
1395.8834 406.14868
1386.7305 406.92148
1380.9178 409.82394
1373.279 410.781
1375.7494 400.10165
1372.257 393.4784
1369.5878 383.75497
1361.7377 390.8125
1362.4652 406.44092
1363.5857 420.66998
1349.6761 422.87775
1337.0951 431.0675
1324.0647 436.8824
1325.5037 426.4035
1313.0063 409.5822
1313.2983 421.2533
1313.5273 428.25372
1313.6434 433.40976
1313.179 439.73962
1307.2317 438.00266
1305.2625 431.28314
1302.5127 422.89923
1294.0549 419.91843
1281.803 427.32883
1289.0453 435.08005
1297.8551 436.63132
1287.0125 453.5416
1277.9597 441.72885
1266.0005 444.32294
1270.5562 426.42953
1259.4926 434.06482
1249.0833 430.72412
1251.8503 419.45734
1240.737 421.31613
1236.1196 427.62756
1237.6105 437.5083
1245.4158 440.98895
1243.1576 448.32306
1236.99 449.65186
1238.8242 457.66766
1246.1853 457.82928
1245.3704 453.38306
1251.1824 448.53223
1257.3594 451.96027
1264.1218 458.3036
1272.9005 458.9156
1257.1182 465.93872
1244.2822 465.35608
1243.4839 476.46686
1253.6982 477.8619
1251.0167 491.63867
1264.3326 494.41083
1278.3026 500.42896
1281.5859 513.66943
1273.2515 515.37146
1266.3152 512.1057
1256.5757 509.395
1256.4077 521.94293
1271.5063 528.8628
1281.7413 535.9557
1289.3536 518.3084
1299.1788 519.2605
1305.283 513.90796
1305.0925 504.41113
1293.75 507.37592
1293.1975 499.24326
1292.2631 491.98886
1286.3732 484.4332
1271.2427 480.6126
1278.2368 469.63538
1294.9319 468.54407
1311.7249 465.91867
1320.0591 466.18918
1318.9319 480.81528
1309.8403 474.74057
1302.3304 480.28745
1305.0432 491.23938
1318.5176 495.50827
1318.1465 507.60376
1328.0358 509.9858
1324.5276 519.60455
1314.837 518.46423
1308.7283 523.47314
1307.7372 529.16754
1300.633 533.02014
1298.123 526.50586
1290.2588 529.695
1291.9294 543.6198
1288.9269 556.13184
1276.5288 545.34717
1264.3452 543.3214
1273.9144 556.56915
1279.3823 566.9878
1282.6772 577.7002
1293.4359 574.76587
1297.6735 564.48236
1305.3406 551.447
1306.1292 539.0392
1319.2094 546.7032
1318.9177 559.5772
1311.596 566.36365
1318.2866 578.43085
1312.2753 575.8103
1304.8324 577.10956
1298.9032 586.8427
1289.3586 588.3825
1301.1431 602.95483
1312.296 612.55457
1318.5461 619.67645
1312.5483 625.2633
1320.6991 632.97485
1326.3496 638.6493
1333.6742 640.48724
1344.6664 639.72424
1344.5327 626.97217
1329.4822 627.2406
1336.0854 618.7019
1328.0863 611.3876
1336.6614 605.06024
1324.16 597.9823
1316.949 603.55444
1309.9908 590.8114
1321.4344 584.73615
1328.008 588.89954
1338.1028 589.99646
1334.459 577.0198
1326.6555 570.29175
1331.457 561.9125
1334.6252 552.2444
1318.4263 532.751
1330.7535 529.3091
1331.9456 541.0633
1364.2598 533.954
1372.6973 547.26575
1377.563 530.8624
1362.3485 514.3275
1379.8018 505.86496
1398.0098 502.948
1409.4554 489.07553
1409.0049 473.80222
1429.2284 470.74338
1428.3533 485.01154
1421.6084 502.2398
1438.293 500.864
1449.5667 497.8255
1443.5333 513.60394
1429.4001 517.3073
1445.1213 526.19775
1431.9893 535.84534
1446.5089 542.5447
1435.8774 551.8135
1430.8196 559.84155
1421.102 557.33813
1410.8597 550.06213
1418.812 536.7233
1420.0872 523.73706
1410.6772 514.7187
1402.4647 522.2052
1387.168 520.51575
1394.2023 530.50214
1405.7023 536.9551
1392.0393 544.18274
1392.3213 555.7711
1378.0989 558.7625
1342.9229 564.94995
1348.5471 576.2307
1348.385 584.99133
1356.7804 587.1584
1351.626 595.155
1345.5984 600.85815
1349.5496 614.3469
1356.3359 630.14703
1360.0156 644.6068
1354.2979 650.46027
1346.4927 652.93256
1335.915 652.1418
1347.8635 664.3418
1358.1699 666.26874
1372.4653 667.8525
1372.7205 681.58594
1388.7164 671.4204
1398.2716 663.2245
1411.2422 662.72046
1410.3478 674.771
1404.9209 689.2339
1390.0856 688.4667
1401.8187 702.1107
1413.087 705.69476
1420.5039 715.77234
1428.0237 704.08386
1416.6736 690.8781
1420.2537 680.1198
1429.3497 675.19904
1431.8855 689.29626
1445.108 690.2379
1452.4828 699.14417
1462.3147 704.42786
1468.0947 713.88525
1458.2014 722.2335
1452.2883 715.00305
1442.2937 709.81976
1434.7704 720.4973
1447.3798 727.77625
1458.5793 734.65076
1466.8722 729.79395
1477.5846 721.1364
1473.0708 741.4603
1479.8733 736.5239
1491.0249 734.30457
1501.6108 719.19055
1480.5056 707.603
1484.9326 674.97705
1469.248 665.6188
1455.8962 656.5642
1465.2113 642.61975
1476.6301 651.0493
1486.6116 656.3192
1498.334 661.4177
1504.4716 675.4643
1504.6763 686.527
1516.9666 692.8303
1518.2422 685.31433
1523.271 678.6781
1532.1456 686.3332
1538.7014 697.43054
1527.1343 695.4853
1519.5807 723.4536
1527.6284 733.94916
1532.6154 725.8915
1539.2871 730.6449
1548.793 730.4144
1544.7064 737.43896
1539.5312 744.1159
1531.1577 742.4945
1520.7589 738.2888
1511.7316 742.7375
1505.7358 735.3532
1503.8994 750.4099
1519.0205 748.4648
1520.1498 755.56824
1526.6792 753.0447
1531.656 752.90594
1535.0844 758.5232
1538.6047 751.7326
1548.1187 749.2243
1544.5061 759.01904
1553.7578 757.417
1560.9573 760.86145
1569.8914 759.18604
1568.1456 748.738
1576.4158 747.50916
1582.3042 752.91064
1583.1707 761.02606
1592.4927 759.5871
1599.8767 762.5954
1608.0496 763.21484
1616.549 762.56805
1626.3611 758.2804
1628.6562 745.92896
1630.2784 735.60767
1633.7948 725.7003
1614.6001 729.0036
1615.8096 739.22876
1614.46 748.79736
1609.1628 754.1293
1600.6643 753.4769
1597.6965 737.095
1584.7778 741.94305
1582.3337 730.6387
1570.6428 729.3891
1570.97 739.55164
1559.1927 748.08685
1554.9215 740.41376
1560.245 735.3393
1563.6133 730.2787
1554.5569 727.21185
1555.006 698.59296
1578.6562 700.2111
1567.835 691.4132
1547.7938 685.7073
1551.6282 672.07837
1536.0989 669.3517
1521.7622 668.73865
1515.7456 657.0364
1514.9703 637.82086
1496.7736 637.0553
1479.2026 630.21045
1478.2463 611.3352
1498.5887 599.95605
1486.7037 591.1671
1476.1885 577.92664
1464.6099 590.19434
1443.446 590.4992
1449.9312 605.7439
1458.958 622.2064
1449.2186 640.0317
1435.214 639.1395
1431.8944 621.5945
1424.1807 604.11084
1410.3132 610.426
1384.2667 627.9966
1386.125 642.07733
1399.6613 648.94226
1386.6064 654.83936
1372.745 654.91626
1369.6163 641.0898
1380.9227 634.6455
1377.2085 622.0135
1372.471 629.6255
1364.3372 626.1277
1364.7273 617.53595
1357.4406 606.94946
1359.8993 594.765
1364.3964 599.6548
1365.6506 606.74695
1370.3035 609.8097
1372.5051 616.3301
1376.7354 614.8689
1396.9553 595.2987
1395.82 582.50574
1384.1016 576.77856
1386.8071 566.24316
1392.5599 574.472
1397.8827 570.383
1396.0074 562.9563
1403.4222 563.8427
1412.1277 563.9396
1413.9177 574.7535
1405.9019 579.07654
1407.736 592.72046
1421.1394 587.69037
1423.5468 573.6205
1433.9812 574.578
1445.6726 572.0235
1459.6982 572.4349
1457.0874 558.4673
1464.1528 542.7473
1475.74 558.9928
1490.2927 568.9257
1492.5623 554.31274
1505.4402 551.271
1519.117 550.7418
1537.0986 551.9363
1536.458 531.9928
1516.657 530.77686
1497.4557 522.2553
1489.258 540.98254
1479.3441 528.6408
1466.8291 524.20715
1462.8679 513.3793
1456.1777 503.95358
1450.6118 490.85776
1467.0662 491.14148
1481.9204 502.99426
1499.529 497.18585
1510.8586 506.9908
1519.5319 512.90674
1527.3694 520.41473
1534.1445 508.85217
1527.5326 497.7579
1521.094 484.60605
1515.5364 470.49896
1501.6427 477.00537
1484.4043 478.58752
1469.6675 472.11664
1448.7659 482.98776
1439.1628 482.93195
1453.4583 473.03583
1475.7009 438.7668
1485.6378 428.77502
1500.2192 436.6985
1497.2166 425.6329
1486.7974 414.97116
1476.8136 405.3499
1479.3131 396.29974
1482.7001 388.93536
1489.3146 390.67804
1490.5045 384.60614
1493.6154 381.70966
1498.8535 379.43805
1502.1246 370.54108
1503.7579 355.146
1510.5105 361.72565
1512.2146 370.4271
1508.5756 379.32275
1514.7249 383.86285
1519.851 373.1535
1529.4365 368.49216
1524.3065 381.2876
1532.115 388.88086
1534.9788 404.32117
1523.8632 411.99353
1521.1548 399.72418
1515.7916 390.0763
1511.8132 397.14032
1504.6818 403.44272
1503.6578 390.95895
1496.1147 391.21613
1492.0929 401.76398
1500.6361 412.38983
1508.9845 417.45892
1515.1162 429.64954
1526.7336 429.7257
1534.9314 430.83246
1544.2024 424.56686
1542.5854 437.0639
1555.2969 433.76575
1571.1779 438.53308
1589.7681 433.5611
1576.8207 425.73993
1567.0002 432.00812
1563.178 423.20068
1556.7627 417.09485
1544.1459 413.9311
1547.2219 399.81805
1558.3307 406.64398
1570.2996 411.7249
1582.2238 411.50134
1592.0685 414.5597
1602.5281 422.5084
1606.7693 411.62122
1599.1848 400.90527
1610.1489 399.747
1620.5593 406.20428
1617.2175 388.1023
1629.9377 381.02133
1643.9713 379.91974
1631.3926 396.74994
1646.0414 396.09747
1658.9451 400.13495
1669.2 399.81586
1682.8346 402.18942
1688.78 415.3884
1685.9131 425.42242
1670.7444 425.94345
1673.231 413.2245
1660.3635 416.64825
1650.456 410.33917
1636.8945 413.85284
1647.9705 427.29453
1655.7255 433.25964
1648.4167 438.9947
1638.3483 431.7369
1626.9393 434.08167
1620.331 421.10846
1609.4711 434.73608
1599.0645 472.4773
1610.2938 484.3532
1586.6729 483.80954
1571.1526 491.45395
1564.1 472.1775
1536.0493 471.5965
1547.7961 483.0278
1549.6282 501.21838
1543.7245 516.3447
1552.0194 524.7118
1566.2393 527.4961
1556.2577 541.8028
1558.3538 556.7152
1571.0577 571.0896
1563.5747 604.6841
1564.3677 618.96155
1546.5283 595.58386
1558.1395 580.05304
1539.6991 572.136
1531.7358 589.1948
1539.623 607.28345
1549.198 614.38354
1551.4863 622.8617
1555.321 630.0443
1563.084 635.67096
1567.0686 629.4596
1575.2474 625.16864
1580.9633 615.793
1589.0067 604.63855
1577.7184 598.17413
1590.9312 583.28253
1586.8821 568.42065
1586.1819 555.587
1574.5679 544.38696
1584.8572 538.63385
1593.7335 534.23596
1587.9572 525.4585
1570.3699 508.88507
1584.2778 514.96515
1601.531 508.14606
1622.8838 519.9027
1608.2361 524.7605
1597.6986 524.6544
1598.7148 543.7273
1606.4106 557.5166
1623.9197 554.9299
1612.6486 536.7549
1627.1233 538.5414
1641.3225 545.4282
1638.8789 525.574
1653.5374 514.0936
1641.1062 504.54852
1628.468 507.80734
1614.0242 500.66284
1629.0166 491.7656
1626.69 473.2778
1642.6431 482.00006
1654.7959 492.0019
1666.2524 495.0702
1671.2858 507.70944
1677.3662 519.6672
1667.1382 528.8705
1658.9249 536.6749
1655.8062 548.697
1660.6318 562.3358
1677.6218 576.2118
1692.4868 576.6937
1703.1891 593.2692
1691.1436 602.8497
1681.5623 598.6349
1674.6736 609.1372
1665.609 615.87683
1658.7957 624.49805
1646.6147 620.3042
1637.6018 609.8623
1620.8635 610.775
1622.419 598.47986
1631.1824 587.4226
1641.8641 594.876
1653.665 601.4999
1666.4194 601.9898
1668.348 591.7073
1659.3097 580.5286
1644.069 572.1355
1629.0325 567.88336
1613.1935 578.60205
1608.4636 594.4703
1601.9739 603.4551
1595.5781 614.30176
1606.6755 616.31445
1604.3907 626.6826
1593.4379 624.9016
1585.738 632.5127
1575.5171 638.7073
1585.2169 645.5066
1575.2302 651.95166
1577.8696 664.2589
1584.0729 655.161
1595.2747 657.14154
1593.2488 667.06573
1600.926 678.2886
1611.1633 680.9017
1610.023 665.762
1624.1067 668.08734
1622.5095 676.97766
1620.0332 685.20575
1628.5334 688.1958
1634.5549 685.22504
1634.937 677.6428
1635.0231 670.0346
1637.0039 663.5646
1637.8784 655.84247
1649.0757 653.7645
1643.6826 645.6024
1636.9564 640.6776
1630.9373 635.6107
1624.9547 636.9384
1615.6412 636.4822
1623.1477 649.25055
1617.2485 657.7472
1605.4893 648.6215
1593.7125 645.8458
1597.2979 636.2151
1606.6927 635.956
1616.252 623.1723
1629.6567 622.5092
1637.2517 630.1949
1649.2622 633.6254
1657.4016 643.2908
1661.5231 636.74414
1667.3989 633.85583
1673.6698 627.9705
1684.3853 618.02325
1695.691 610.1627
1701.5708 616.85876
1715.5277 617.0681
1719.054 629.1873
1718.726 642.1937
1704.8303 647.00525
1701.2521 632.5486
1691.5002 636.7228
1683.5632 629.69037
1682.1892 642.23956
1673.659 647.9209
1665.137 654.9153
1655.6057 663.47815
1668.8977 674.4177
1683.6274 677.01
1684.4847 659.1856
1698.6135 669.64514
1701.5889 658.049
1714.7576 661.207
1726.0364 652.9401
1736.1705 639.38257
1749.2654 628.10016
1766.3699 620.777
1763.285 609.603
1738.884 612.1697
1754.1594 597.7572
1762.5059 579.6337
1743.4739 585.4952
1722.9392 601.3354
1726.3588 581.89594
1710.7781 571.1795
1711.8875 552.10944
1692.0232 557.3337
1677.9563 546.61615
1690.1211 530.4303
1699.103 539.00604
1708.7467 536.61914
1711.1663 522.18036
1699.8999 512.7979
1687.1787 502.858
1680.45 489.30115
1676.7457 476.94183
1668.3704 470.3806
1654.3622 473.3685
1662.1604 437.749
1660.1576 426.863
1671.8258 437.9088
1677.5521 431.07513
1681.3986 439.16235
1688.1588 436.39136
1699.6085 432.66443
1713.3477 435.31845
1725.9248 434.67108
1727.8141 439.92282
1737.8655 435.9017
1748.6475 435.50238
1756.0352 433.48688
1763.4199 434.23474
1766.8533 423.01706
1768.8867 416.4782
1772.848 411.8696
1761.4519 414.63116
1753.9143 417.74646
1753.8627 424.88483
1742.3822 425.3143
1738.713 416.1333
1731.1387 422.08444
1723.6831 427.76465
1723.443 414.42206
1714.0609 416.7849
1703.8568 418.7584
1698.0457 406.8841
1697.3994 393.83856
1711.523 399.40524
1727.65 396.47324
1735.7661 406.08936
1747.2769 408.3115
1755.1902 408.74142
1763.0477 405.58563
1770.5762 400.03735
1776.292 389.33017
1792.87 386.37253
1808.9534 378.5479
1829.6685 379.6129
1823.0334 389.03485
1816.158 392.2805
1808.6768 390.15134
1808.0927 398.8896
1798.2792 397.5888
1784.1089 404.73984
1797.5061 416.16095
1782.9827 422.2855
1778.2048 435.34106
1802.0796 433.21344
1822.5881 432.6389
1816.1936 421.3365
1811.1228 408.0102
1824.5851 405.54645
1829.1826 416.50583
1842.2937 410.77258
1853.8469 419.7492
1863.3899 421.3641
1842.8501 425.6839
1849.0288 440.13342
1861.1189 438.20114
1858.7352 449.5724
1850.0363 453.8261
1842.2744 459.34628
1834.3679 467.49506
1838.4271 449.4133
1836.2942 439.0094
1832.2842 426.9489
1823.4023 442.7484
1829.0095 455.51376
1800.7158 475.84714
1780.207 474.11713
1767.1559 485.08945
1752.3741 487.93246
1774.2914 501.38397
1787.8348 502.65854
1790.0615 487.74692
1805.1705 495.9121
1801.5009 511.12094
1801.8696 527.37036
1783.3354 522.0691
1773.7292 538.45856
1762.3649 524.97546
1762.5266 512.59155
1755.4578 502.69873
1748.8505 498.07434
1741.0444 496.03317
1736.2429 484.84653
1752.4471 473.03088
1726.0778 473.84644
1709.793 478.5963
1695.3472 473.08307
1697.3079 489.83392
1709.0464 502.26642
1715.3047 491.89606
1726.7303 497.6649
1726.896 514.61487
1744.0823 514.8678
1737.953 531.35913
1721.6553 534.8185
1731.1628 553.3496
1744.3048 565.7299
1752.5195 541.6166
1760.3575 561.925
1774.1262 558.9975
1792.2507 562.8615
1801.044 544.5322
1836.7255 560.51294
1848.581 570.98645
1860.5223 569.589
1870.8384 571.6576
1871.2535 562.65515
1864.8868 554.17236
1862.134 541.48065
1852.2638 556.854
1841.8947 541.2981
1849.7465 531.06287
1858.782 528.7848
1867.5742 522.52216
1871.7219 528.36615
1881.6378 528.3841
1885.5452 535.6938
1895.4989 530.8074
1896.7172 540.3818
1886.0875 546.271
1876.3706 539.8606
1875.9467 550.2977
1883.5691 555.0548
1889.3395 554.6094
1879.6222 560.0453
1880.7036 569.6344
1891.346 572.68384
1883.4926 583.7829
1897.5913 588.52246
1901.5964 576.7118
1907.3434 564.0514
1894.7261 562.1518
1895.8988 550.64343
1903.7146 552.5045
1912.5923 545.88794
1923.6204 554.727
1919.4408 566.9502
1913.4397 574.34705
1914.1072 582.2886
1907.446 582.41925
1908.6753 589.53827
1905.7773 599.45996
1893.7144 601.98444
1882.2446 600.9103
1871.3915 598.6308
1873.7324 590.85504
1869.5168 580.6692
1860.3834 584.58093
1858.3538 596.71985
1842.1283 594.1738
1849.5674 584.0897
1838.4307 578.91815
1829.7869 580.1234
1825.5283 592.1008
1834.1904 598.3149
1830.6113 603.4769
1826.4341 604.29376
1823.2849 610.9359
1818.487 599.7859
1780.3477 590.87915
1813.5244 613.395
1820.7273 626.00275
1819.998 640.69385
1802.0255 642.92456
1804.728 626.6384
1792.6945 635.8769
1786.4554 645.8414
1790.0569 656.82745
1800.7181 654.8887
1809.9346 653.8956
1810.3252 665.3247
1807.0592 673.47546
1820.8887 658.3007
1832.9636 653.859
1840.9341 644.49115
1838.969 633.76807
1838.0581 622.7539
1834.5566 609.90247
1843.9244 612.4764
1851.3027 605.3009
1855.8224 621.3932
1861.3887 612.5191
1867.9583 607.7058
1878.1975 612.7911
1887.3838 618.62634
1878.9332 631.65674
1871.371 626.3603
1860.6837 633.5243
1866.0679 646.55975
1853.6606 647.17395
1847.5073 660.26196
1835.8301 666.8202
1839.1584 674.2347
1826.6487 673.49426
1816.3877 675.0174
1823.1074 685.4308
1813.4316 685.90845
1810.1885 696.4414
1803.2815 692.2477
1792.6794 685.6755
1802.8506 685.5485
1804.5057 679.62177
1798.8187 669.127
1787.5834 669.0665
1781.6517 685.00757
1779.4666 674.02563
1776.6833 655.01483
1766.0144 663.8156
1756.4155 673.36414
1772.3308 673.6971
1767.9503 681.90405
1772.0037 693.9294
1780.4182 697.79956
1791.0 701.82294
1798.8811 700.53705
1783.5079 706.3248
1783.0969 714.2163
1771.4932 719.1649
1772.0381 710.6467
1769.4841 705.34985
1763.2224 703.3171
1758.6528 694.5881
1761.9028 687.0212
1747.7358 684.41815
1732.4324 689.40967
1703.9019 705.6887
1724.484 704.64575
1742.5945 701.8635
1754.1033 701.2045
1754.1484 709.04517
1756.183 717.6945
1762.7546 716.5529
1758.4962 726.69403
1746.8491 733.708
1746.5322 727.251
1750.9321 722.09863
1745.7166 713.43005
1738.483 718.1996
1729.656 720.64056
1739.4812 726.7863
1735.6748 734.8352
1726.1917 734.3852
1719.2952 724.40894
1711.4843 718.1201
1697.8168 721.2494
1686.1364 716.7761
1673.7062 715.9103
1673.808 727.84106
1676.9763 738.0547
1685.2712 732.0547
1693.511 736.6698
1701.6267 732.43506
1711.0054 737.7821
1718.637 743.8969
1695.865 748.185
1684.2546 744.7799
1676.6727 749.3903
1670.6495 754.72186
1667.7745 740.5695
1658.8871 733.3002
1656.4744 741.901
1656.0653 749.2717
1660.1176 756.6945
1649.4818 758.9313
1637.722 758.45325
1644.3483 748.3388
1641.8276 737.2909
1649.169 725.12854
1661.8945 721.4365
1660.7352 687.6133
1650.6954 676.2771
1641.752 686.622
1647.1952 692.8757
1632.9535 697.2455
1622.0273 695.9791
1611.3898 696.7987
1600.0571 701.93427
1593.7678 694.3334
1587.6497 682.95105
1579.0305 678.08765
1568.6646 676.4297
1563.4275 665.59546
1552.7446 654.6571
1567.3922 648.7556
1557.5762 642.6695
1546.0438 636.0805
1535.489 651.3201
1535.7661 637.2484
1525.5039 627.82635
1529.477 614.60645
1507.4941 613.7162
1514.6522 590.66675
1506.2478 574.539
1522.282 569.3321
" />
</g></g></svg>
